<?xml version="1.0" encoding="UTF-8"?>
<svg width="20px" height="20px" viewBox="0 0 20 20" version="1.1" xmlns="http://www.w3.org/2000/svg" xmlns:xlink="http://www.w3.org/1999/xlink">
    <title>Netlify Logo</title>
    <defs></defs>
    <g id="Page-1" stroke="none" stroke-width="1" fill="none" fill-rule="evenodd">
        <g id="netlify-logo" fill="#0E1E25" fill-rule="nonzero">
            <path d="M14.2945,7.0675 L14.2875,7.0645 C14.2835,7.063 14.2795,7.0615 14.276,7.058 C14.2643727,7.04551096 14.2592007,7.02833252 14.262,7.0115 L14.6485,4.6485 L16.461,6.4615 L14.576,7.2635 C14.5707615,7.26561246 14.5651468,7.2666333 14.5595,7.2665 L14.552,7.2665 C14.5495,7.265 14.547,7.263 14.542,7.258 C14.4718496,7.17989273 14.38796,7.11532317 14.2945,7.0675 Z M16.9235,6.9235 L18.8615,8.8615 C19.264,9.2645 19.4655,9.4655 19.539,9.6985 C19.55,9.733 19.559,9.7675 19.566,9.803 L14.9345,7.8415 C14.9320112,7.84047229 14.929511,7.83947223 14.927,7.8385 C14.9085,7.831 14.887,7.8225 14.887,7.8035 C14.887,7.7845 14.909,7.7755 14.9275,7.768 L14.9335,7.7655 L16.9235,6.9235 Z M19.487,10.425 C19.387,10.613 19.192,10.808 18.862,11.1385 L16.677,13.323 L13.851,12.7345 L13.836,12.7315 C13.811,12.7275 13.7845,12.723 13.7845,12.7005 C13.7628044,12.4648454 13.6441849,12.248795 13.457,12.104 C13.4455,12.0925 13.4485,12.0745 13.452,12.058 C13.452,12.0555 13.452,12.053 13.453,12.051 L13.9845,8.788 L13.9865,8.777 C13.9895,8.752 13.994,8.723 14.0165,8.723 C14.2465819,8.69437767 14.4555417,8.57458605 14.5965,8.3905 C14.601,8.3855 14.604,8.38 14.61,8.377 C14.626,8.3695 14.645,8.377 14.6615,8.384 L19.4865,10.425 L19.487,10.425 Z M16.1745,13.8255 L12.5815,17.4185 L13.1965,13.6385 L13.1975,13.6335 C13.198,13.6285 13.199,13.6235 13.2005,13.619 C13.2055,13.607 13.2185,13.602 13.231,13.597 L13.237,13.5945 C13.3716579,13.5370473 13.4907556,13.4484524 13.5845,13.336 C13.5965,13.322 13.611,13.3085 13.6295,13.306 C13.6343016,13.3052162 13.6391984,13.3052162 13.644,13.306 L16.174,13.826 L16.1745,13.8255 Z M11.821,18.179 L11.416,18.584 L6.9385,12.113 C6.93688085,12.1106331 6.93521384,12.1082993 6.9335,12.106 C6.9265,12.0965 6.919,12.087 6.9205,12.076 C6.921,12.068 6.926,12.061 6.9315,12.055 L6.9365,12.0485 C6.95,12.0285 6.9615,12.0085 6.974,11.987 L6.984,11.9695 L6.9855,11.968 C6.9925,11.956 6.999,11.9445 7.011,11.938 C7.0215,11.933 7.036,11.935 7.0475,11.9375 L12.008,12.9605 C12.0218701,12.9626569 12.0349544,12.9683382 12.046,12.977 C12.0525,12.9835 12.054,12.9905 12.0555,12.9985 C12.1256403,13.2638801 12.3157916,13.4812223 12.5695,13.586 C12.5835,13.593 12.5775,13.6085 12.571,13.625 C12.567757,13.6322315 12.5652445,13.639769 12.5635,13.6475 C12.501,14.0275 11.965,17.2965 11.821,18.179 Z M10.975,19.0245 C10.6765,19.32 10.5005,19.4765 10.3015,19.5395 C10.1052881,19.6015451 9.89471195,19.6015451 9.6985,19.5395 C9.4655,19.4655 9.264,19.2645 8.8615,18.8615 L4.365,14.365 L5.5395,12.5435 C5.545,12.5345 5.5505,12.5265 5.5595,12.52 C5.572,12.511 5.59,12.515 5.605,12.52 C5.87458023,12.6013307 6.16402177,12.5866642 6.424,12.4785 C6.4375,12.4735 6.451,12.47 6.4615,12.4795 C6.46675063,12.4842927 6.47144669,12.4896596 6.4755,12.4955 L10.975,19.025 L10.975,19.0245 Z M3.9315,13.9315 L2.9,12.9 L4.937,12.031 C4.94220674,12.0287296 4.94781991,12.0275389 4.9535,12.0275 C4.9705,12.0275 4.9805,12.0445 4.9895,12.06 C5.009971,12.0914942 5.03165391,12.1221839 5.0545,12.152 L5.061,12.16 C5.067,12.1685 5.063,12.177 5.057,12.185 L3.932,13.9315 L3.9315,13.9315 Z M2.4435,12.4435 L1.1385,11.1385 C0.9165,10.9165 0.7555,10.7555 0.6435,10.617 L4.6115,11.44 C4.6164845,11.4409238 4.62148532,11.4417573 4.6265,11.4425 C4.651,11.4465 4.678,11.451 4.678,11.474 C4.678,11.499 4.6485,11.5105 4.6235,11.52 L4.612,11.525 L2.4435,12.4435 Z M0.4155,9.946 C0.420022078,9.8619347 0.435141678,9.7787769 0.4605,9.6985 C0.5345,9.4655 0.7355,9.2645 1.1385,8.8615 L2.8085,7.1915 C3.57741657,8.30743986 4.34841791,9.42194181 5.1215,10.535 C5.135,10.553 5.15,10.573 5.1345,10.588 C5.0615,10.6685 4.9885,10.7565 4.937,10.852 C4.93141302,10.8642755 4.92281323,10.8749392 4.912,10.883 C4.9055,10.887 4.8985,10.8855 4.891,10.884 L4.89,10.884 L0.4155,9.9455 L0.4155,9.946 Z M3.2555,6.7445 L5.501,4.499 C5.712,4.5915 6.48,4.916 7.167,5.206 C7.687,5.426 8.161,5.626 8.31,5.691 C8.325,5.697 8.3385,5.703 8.345,5.718 C8.349,5.727 8.347,5.7385 8.345,5.748 C8.27279541,6.07726009 8.37107115,6.42075539 8.6065,6.662 C8.6215,6.677 8.6065,6.6985 8.5935,6.717 L8.5865,6.7275 L6.3065,10.259 C6.3005,10.269 6.295,10.2775 6.285,10.284 C6.273,10.2915 6.256,10.288 6.242,10.2845 C6.15332247,10.2612669 6.06216065,10.2488434 5.9705,10.2475 C5.8885,10.2475 5.7995,10.2625 5.7095,10.279 L5.709,10.279 C5.699,10.2805 5.69,10.2825 5.682,10.2765 C5.67316419,10.2692791 5.66556454,10.2606661 5.6595,10.251 L3.2555,6.7445 Z M5.9545,4.0455 L8.8615,1.1385 C9.264,0.736 9.4655,0.5345 9.6985,0.461 C9.89471195,0.398954902 10.1052881,0.398954902 10.3015,0.461 C10.5345,0.5345 10.736,0.736 11.1385,1.1385 L11.7685,1.7685 L9.701,4.9705 C9.69588534,4.97982154 9.68890731,4.98799094 9.6805,4.9945 C9.668,5.003 9.6505,4.9995 9.6355,4.9945 C9.30457262,4.89407305 8.94540823,4.96328702 8.6755,5.1795 C8.662,5.1935 8.642,5.1855 8.625,5.178 C8.355,5.0605 6.255,4.173 5.9545,4.0455 Z M12.2075,2.2075 L14.1165,4.1165 L13.6565,6.9655 L13.6565,6.973 C13.6560893,6.97949301 13.654742,6.98589253 13.6525,6.992 C13.6475,7.002 13.6375,7.004 13.6275,7.007 C13.5291496,7.03679075 13.4365202,7.0829364 13.3535,7.1435 C13.3499308,7.14604357 13.3465854,7.14888723 13.3435,7.152 C13.338,7.158 13.3325,7.1635 13.3235,7.1645 C13.316175,7.16472631 13.308875,7.16353795 13.302,7.161 L10.393,5.925 L10.3875,5.9225 C10.369,5.915 10.347,5.906 10.347,5.887 C10.3299016,5.72489212 10.2769562,5.56861779 10.192,5.4295 C10.178,5.4065 10.1625,5.3825 10.1745,5.359 L12.2075,2.2075 Z M10.2415,6.5105 L12.9685,7.6655 C12.9835,7.6725 13,7.679 13.0065,7.6945 C13.0091022,7.70382181 13.0091022,7.71367819 13.0065,7.723 C12.9985,7.763 12.9915,7.8085 12.9915,7.8545 L12.9915,7.931 C12.9915,7.95 12.972,7.958 12.954,7.9655 L12.9485,7.9675 C12.5165,8.152 6.8835,10.554 6.875,10.554 C6.8665,10.554 6.8575,10.554 6.849,10.5455 C6.834,10.5305 6.849,10.5095 6.8625,10.4905 C6.86488672,10.4872044 6.86722036,10.4838706 6.8695,10.4805 L9.1105,7.0105 L9.1145,7.0045 C9.1275,6.9835 9.1425,6.96 9.1665,6.96 L9.189,6.9635 C9.24,6.9705 9.285,6.977 9.3305,6.977 C9.6705,6.977 9.9855,6.8115 10.1755,6.5285 C10.1800269,6.52094282 10.1857708,6.51418521 10.1925,6.5085 C10.206,6.4985 10.226,6.5035 10.2415,6.5105 Z M7.1185,11.103 L13.2585,8.4845 C13.2585,8.4845 13.2675,8.4845 13.276,8.493 C13.3095,8.5265 13.338,8.549 13.3655,8.57 L13.379,8.5785 C13.3915,8.5855 13.404,8.5935 13.405,8.6065 C13.405,8.6115 13.405,8.6145 13.404,8.619 L12.878,11.85 L12.876,11.863 C12.8725,11.888 12.869,11.9165 12.8455,11.9165 C12.560797,11.9357167 12.3039158,12.094186 12.159,12.34 L12.1565,12.344 C12.1495,12.3555 12.143,12.3665 12.1315,12.3725 C12.121,12.3775 12.1075,12.3755 12.0965,12.373 L7.2,11.363 C7.195,11.362 7.124,11.1035 7.1185,11.103 Z" id="Shape"></path>
        </g>
    </g>
</svg>
